<mxfile host="app.diagrams.net" agent="Mozilla/5.0 (Windows NT 10.0; Win64; x64) AppleWebKit/537.36 (KHTML, like Gecko) Chrome/135.0.0.0 Safari/537.36" version="26.2.6">
  <diagram name="Page-1" id="AbfO4hszyYkf5Fb8kGgq">
    <mxGraphModel grid="1" page="1" gridSize="10" guides="1" tooltips="1" connect="1" arrows="1" fold="1" pageScale="1" pageWidth="850" pageHeight="1100" math="0" shadow="0">
      <root>
        <mxCell id="0" />
        <mxCell id="1" parent="0" />
        <mxCell id="GWPl_3ji_C_Ek2IqN3ii-19" style="edgeStyle=orthogonalEdgeStyle;rounded=0;orthogonalLoop=1;jettySize=auto;html=1;entryX=0;entryY=0.5;entryDx=0;entryDy=0;" edge="1" parent="1" source="GWPl_3ji_C_Ek2IqN3ii-14" target="GWPl_3ji_C_Ek2IqN3ii-18">
          <mxGeometry relative="1" as="geometry" />
        </mxCell>
        <mxCell id="GWPl_3ji_C_Ek2IqN3ii-14" value="thẻ ATM" style="shape=document;whiteSpace=wrap;html=1;boundedLbl=1;" vertex="1" parent="1">
          <mxGeometry x="450" y="106" width="120" height="62" as="geometry" />
        </mxCell>
        <mxCell id="GWPl_3ji_C_Ek2IqN3ii-17" style="edgeStyle=orthogonalEdgeStyle;rounded=0;orthogonalLoop=1;jettySize=auto;html=1;entryX=0.025;entryY=0.4;entryDx=0;entryDy=0;entryPerimeter=0;" edge="1" parent="1" target="GWPl_3ji_C_Ek2IqN3ii-14">
          <mxGeometry relative="1" as="geometry">
            <mxPoint x="320" y="130" as="sourcePoint" />
          </mxGeometry>
        </mxCell>
        <mxCell id="GWPl_3ji_C_Ek2IqN3ii-27" style="edgeStyle=orthogonalEdgeStyle;rounded=0;orthogonalLoop=1;jettySize=auto;html=1;" edge="1" parent="1" source="GWPl_3ji_C_Ek2IqN3ii-18">
          <mxGeometry relative="1" as="geometry">
            <mxPoint x="765" y="210" as="targetPoint" />
          </mxGeometry>
        </mxCell>
        <mxCell id="GWPl_3ji_C_Ek2IqN3ii-18" value="Kiểm tra thông tin thẻ" style="rounded=0;whiteSpace=wrap;html=1;" vertex="1" parent="1">
          <mxGeometry x="705" y="107" width="120" height="60" as="geometry" />
        </mxCell>
        <mxCell id="GWPl_3ji_C_Ek2IqN3ii-20" value="" style="ellipse;whiteSpace=wrap;html=1;" vertex="1" parent="1">
          <mxGeometry x="1130" y="101" width="100" height="20" as="geometry" />
        </mxCell>
        <mxCell id="GWPl_3ji_C_Ek2IqN3ii-21" value="" style="ellipse;whiteSpace=wrap;html=1;" vertex="1" parent="1">
          <mxGeometry x="1130" y="148" width="100" height="20" as="geometry" />
        </mxCell>
        <mxCell id="GWPl_3ji_C_Ek2IqN3ii-22" value="" style="endArrow=none;html=1;rounded=0;entryX=0;entryY=0.5;entryDx=0;entryDy=0;exitX=0;exitY=0.5;exitDx=0;exitDy=0;" edge="1" parent="1" source="GWPl_3ji_C_Ek2IqN3ii-21" target="GWPl_3ji_C_Ek2IqN3ii-20">
          <mxGeometry width="50" height="50" relative="1" as="geometry">
            <mxPoint x="1010" y="341" as="sourcePoint" />
            <mxPoint x="1060" y="291" as="targetPoint" />
          </mxGeometry>
        </mxCell>
        <mxCell id="GWPl_3ji_C_Ek2IqN3ii-23" value="" style="endArrow=none;html=1;rounded=0;entryX=1;entryY=0.5;entryDx=0;entryDy=0;exitX=1;exitY=0.5;exitDx=0;exitDy=0;" edge="1" parent="1" source="GWPl_3ji_C_Ek2IqN3ii-21" target="GWPl_3ji_C_Ek2IqN3ii-20">
          <mxGeometry width="50" height="50" relative="1" as="geometry">
            <mxPoint x="1200" y="181" as="sourcePoint" />
            <mxPoint x="1250" y="131" as="targetPoint" />
          </mxGeometry>
        </mxCell>
        <mxCell id="GWPl_3ji_C_Ek2IqN3ii-24" value="CSDL_Bank_1" style="text;html=1;align=center;verticalAlign=middle;whiteSpace=wrap;rounded=0;" vertex="1" parent="1">
          <mxGeometry x="1150" y="118" width="60" height="30" as="geometry" />
        </mxCell>
        <mxCell id="GWPl_3ji_C_Ek2IqN3ii-25" value="" style="endArrow=classic;html=1;rounded=0;entryX=1;entryY=0.5;entryDx=0;entryDy=0;dashed=1;" edge="1" parent="1" source="GWPl_3ji_C_Ek2IqN3ii-33" target="GWPl_3ji_C_Ek2IqN3ii-18">
          <mxGeometry width="50" height="50" relative="1" as="geometry">
            <mxPoint x="1040" y="120" as="sourcePoint" />
            <mxPoint x="920" y="270" as="targetPoint" />
            <Array as="points" />
          </mxGeometry>
        </mxCell>
        <mxCell id="GWPl_3ji_C_Ek2IqN3ii-28" style="edgeStyle=orthogonalEdgeStyle;rounded=0;orthogonalLoop=1;jettySize=auto;html=1;entryX=1;entryY=0.5;entryDx=0;entryDy=0;" edge="1" parent="1" source="GWPl_3ji_C_Ek2IqN3ii-26">
          <mxGeometry relative="1" as="geometry">
            <mxPoint x="560" y="330.0000000000001" as="targetPoint" />
          </mxGeometry>
        </mxCell>
        <mxCell id="GWPl_3ji_C_Ek2IqN3ii-26" value="yêu cầu nhập mã pin" style="rounded=0;whiteSpace=wrap;html=1;" vertex="1" parent="1">
          <mxGeometry x="705" y="300" width="120" height="60" as="geometry" />
        </mxCell>
        <mxCell id="GWPl_3ji_C_Ek2IqN3ii-32" style="edgeStyle=orthogonalEdgeStyle;rounded=0;orthogonalLoop=1;jettySize=auto;html=1;entryX=0.5;entryY=0;entryDx=0;entryDy=0;" edge="1" parent="1" source="GWPl_3ji_C_Ek2IqN3ii-30" target="GWPl_3ji_C_Ek2IqN3ii-26">
          <mxGeometry relative="1" as="geometry" />
        </mxCell>
        <mxCell id="GWPl_3ji_C_Ek2IqN3ii-30" value="hiển thị thông tin KH" style="rounded=0;whiteSpace=wrap;html=1;" vertex="1" parent="1">
          <mxGeometry x="705" y="210" width="120" height="60" as="geometry" />
        </mxCell>
        <mxCell id="GWPl_3ji_C_Ek2IqN3ii-51" style="edgeStyle=orthogonalEdgeStyle;rounded=0;orthogonalLoop=1;jettySize=auto;html=1;entryX=0;entryY=0.5;entryDx=0;entryDy=0;exitX=0.472;exitY=0.844;exitDx=0;exitDy=0;exitPerimeter=0;" edge="1" parent="1" source="GWPl_3ji_C_Ek2IqN3ii-34" target="GWPl_3ji_C_Ek2IqN3ii-41">
          <mxGeometry relative="1" as="geometry">
            <mxPoint x="700" y="500" as="targetPoint" />
            <Array as="points">
              <mxPoint x="500" y="362" />
              <mxPoint x="500" y="540" />
            </Array>
          </mxGeometry>
        </mxCell>
        <mxCell id="GWPl_3ji_C_Ek2IqN3ii-34" value="mã pin" style="shape=document;whiteSpace=wrap;html=1;boundedLbl=1;" vertex="1" parent="1">
          <mxGeometry x="440" y="310" width="120" height="62" as="geometry" />
        </mxCell>
        <mxCell id="GWPl_3ji_C_Ek2IqN3ii-38" value="" style="endArrow=none;dashed=1;html=1;rounded=0;exitX=1;exitY=0.5;exitDx=0;exitDy=0;" edge="1" parent="1" source="GWPl_3ji_C_Ek2IqN3ii-33">
          <mxGeometry width="50" height="50" relative="1" as="geometry">
            <mxPoint x="720" y="290" as="sourcePoint" />
            <mxPoint x="1130" y="137" as="targetPoint" />
          </mxGeometry>
        </mxCell>
        <mxCell id="GWPl_3ji_C_Ek2IqN3ii-55" style="edgeStyle=orthogonalEdgeStyle;rounded=0;orthogonalLoop=1;jettySize=auto;html=1;entryX=0.5;entryY=0;entryDx=0;entryDy=0;" edge="1" parent="1" source="GWPl_3ji_C_Ek2IqN3ii-41" target="GWPl_3ji_C_Ek2IqN3ii-45">
          <mxGeometry relative="1" as="geometry" />
        </mxCell>
        <mxCell id="GWPl_3ji_C_Ek2IqN3ii-41" value="Kiểm tra mã pin" style="rhombus;whiteSpace=wrap;html=1;" vertex="1" parent="1">
          <mxGeometry x="695" y="500" width="130" height="80" as="geometry" />
        </mxCell>
        <mxCell id="GWPl_3ji_C_Ek2IqN3ii-43" style="edgeStyle=orthogonalEdgeStyle;rounded=0;orthogonalLoop=1;jettySize=auto;html=1;entryX=1;entryY=0.5;entryDx=0;entryDy=0;dashed=1;" edge="1" parent="1" source="GWPl_3ji_C_Ek2IqN3ii-42" target="GWPl_3ji_C_Ek2IqN3ii-41">
          <mxGeometry relative="1" as="geometry" />
        </mxCell>
        <mxCell id="GWPl_3ji_C_Ek2IqN3ii-42" value="mã pin khách hàng" style="shape=document;whiteSpace=wrap;html=1;boundedLbl=1;" vertex="1" parent="1">
          <mxGeometry x="1070" y="509" width="120" height="62" as="geometry" />
        </mxCell>
        <mxCell id="GWPl_3ji_C_Ek2IqN3ii-44" style="edgeStyle=orthogonalEdgeStyle;rounded=0;orthogonalLoop=1;jettySize=auto;html=1;entryX=0.993;entryY=0.414;entryDx=0;entryDy=0;entryPerimeter=0;dashed=1;strokeColor=default;endArrow=none;startFill=0;" edge="1" parent="1" source="GWPl_3ji_C_Ek2IqN3ii-21" target="GWPl_3ji_C_Ek2IqN3ii-42">
          <mxGeometry relative="1" as="geometry">
            <Array as="points">
              <mxPoint x="1210" y="535" />
            </Array>
          </mxGeometry>
        </mxCell>
        <mxCell id="GWPl_3ji_C_Ek2IqN3ii-57" style="edgeStyle=orthogonalEdgeStyle;rounded=0;orthogonalLoop=1;jettySize=auto;html=1;entryX=1;entryY=0.5;entryDx=0;entryDy=0;" edge="1" parent="1" source="GWPl_3ji_C_Ek2IqN3ii-45" target="GWPl_3ji_C_Ek2IqN3ii-56">
          <mxGeometry relative="1" as="geometry" />
        </mxCell>
        <mxCell id="GWPl_3ji_C_Ek2IqN3ii-45" value="hiển thị danh sách chức năng" style="rounded=0;whiteSpace=wrap;html=1;" vertex="1" parent="1">
          <mxGeometry x="700" y="640" width="120" height="60" as="geometry" />
        </mxCell>
        <mxCell id="GWPl_3ji_C_Ek2IqN3ii-47" value="Đúng" style="text;html=1;align=center;verticalAlign=middle;whiteSpace=wrap;rounded=0;" vertex="1" parent="1">
          <mxGeometry x="760" y="600" width="60" height="30" as="geometry" />
        </mxCell>
        <mxCell id="GWPl_3ji_C_Ek2IqN3ii-48" value="" style="endArrow=classic;html=1;rounded=0;entryX=0.5;entryY=1;entryDx=0;entryDy=0;exitX=1;exitY=0;exitDx=0;exitDy=0;" edge="1" parent="1" source="GWPl_3ji_C_Ek2IqN3ii-41" target="GWPl_3ji_C_Ek2IqN3ii-52">
          <mxGeometry width="50" height="50" relative="1" as="geometry">
            <mxPoint x="800" y="410" as="sourcePoint" />
            <mxPoint x="800" y="330" as="targetPoint" />
            <Array as="points">
              <mxPoint x="870" y="520" />
              <mxPoint x="930" y="520" />
            </Array>
          </mxGeometry>
        </mxCell>
        <mxCell id="GWPl_3ji_C_Ek2IqN3ii-49" value="Sai" style="text;html=1;align=center;verticalAlign=middle;whiteSpace=wrap;rounded=0;" vertex="1" parent="1">
          <mxGeometry x="820" y="490" width="60" height="30" as="geometry" />
        </mxCell>
        <mxCell id="GWPl_3ji_C_Ek2IqN3ii-53" style="edgeStyle=orthogonalEdgeStyle;rounded=0;orthogonalLoop=1;jettySize=auto;html=1;entryX=1;entryY=0.5;entryDx=0;entryDy=0;" edge="1" parent="1" source="GWPl_3ji_C_Ek2IqN3ii-52" target="GWPl_3ji_C_Ek2IqN3ii-26">
          <mxGeometry relative="1" as="geometry">
            <Array as="points">
              <mxPoint x="930" y="330" />
            </Array>
          </mxGeometry>
        </mxCell>
        <mxCell id="GWPl_3ji_C_Ek2IqN3ii-85" style="edgeStyle=orthogonalEdgeStyle;rounded=0;orthogonalLoop=1;jettySize=auto;html=1;entryX=1;entryY=0.5;entryDx=0;entryDy=0;" edge="1" parent="1" source="GWPl_3ji_C_Ek2IqN3ii-52" target="GWPl_3ji_C_Ek2IqN3ii-84">
          <mxGeometry relative="1" as="geometry" />
        </mxCell>
        <mxCell id="GWPl_3ji_C_Ek2IqN3ii-52" value="Số lần nhập sai nhỏ hơn 3" style="rhombus;whiteSpace=wrap;html=1;" vertex="1" parent="1">
          <mxGeometry x="885" y="380" width="90" height="60" as="geometry" />
        </mxCell>
        <mxCell id="GWPl_3ji_C_Ek2IqN3ii-54" value="Đúng" style="text;html=1;align=center;verticalAlign=middle;resizable=0;points=[];autosize=1;strokeColor=none;fillColor=none;" vertex="1" parent="1">
          <mxGeometry x="850" y="300" width="50" height="30" as="geometry" />
        </mxCell>
        <mxCell id="GWPl_3ji_C_Ek2IqN3ii-60" style="edgeStyle=orthogonalEdgeStyle;rounded=0;orthogonalLoop=1;jettySize=auto;html=1;entryX=0;entryY=0.5;entryDx=0;entryDy=0;" edge="1" parent="1" source="GWPl_3ji_C_Ek2IqN3ii-56" target="GWPl_3ji_C_Ek2IqN3ii-58">
          <mxGeometry relative="1" as="geometry">
            <Array as="points">
              <mxPoint x="500" y="790" />
            </Array>
          </mxGeometry>
        </mxCell>
        <mxCell id="GWPl_3ji_C_Ek2IqN3ii-56" value="Chọn rút tiền" style="rounded=0;whiteSpace=wrap;html=1;" vertex="1" parent="1">
          <mxGeometry x="440" y="640" width="120" height="60" as="geometry" />
        </mxCell>
        <mxCell id="GWPl_3ji_C_Ek2IqN3ii-61" style="edgeStyle=orthogonalEdgeStyle;rounded=0;orthogonalLoop=1;jettySize=auto;html=1;entryX=1;entryY=0.5;entryDx=0;entryDy=0;" edge="1" parent="1" source="GWPl_3ji_C_Ek2IqN3ii-58" target="GWPl_3ji_C_Ek2IqN3ii-59">
          <mxGeometry relative="1" as="geometry">
            <Array as="points">
              <mxPoint x="760" y="899" />
            </Array>
          </mxGeometry>
        </mxCell>
        <mxCell id="GWPl_3ji_C_Ek2IqN3ii-58" value="Yêu cầu chọn loại tài khoản" style="rounded=0;whiteSpace=wrap;html=1;" vertex="1" parent="1">
          <mxGeometry x="700" y="760" width="120" height="60" as="geometry" />
        </mxCell>
        <mxCell id="GWPl_3ji_C_Ek2IqN3ii-63" style="edgeStyle=orthogonalEdgeStyle;rounded=0;orthogonalLoop=1;jettySize=auto;html=1;entryX=0;entryY=0.5;entryDx=0;entryDy=0;" edge="1" parent="1" source="GWPl_3ji_C_Ek2IqN3ii-59" target="GWPl_3ji_C_Ek2IqN3ii-62">
          <mxGeometry relative="1" as="geometry">
            <Array as="points">
              <mxPoint x="499" y="990" />
            </Array>
          </mxGeometry>
        </mxCell>
        <mxCell id="GWPl_3ji_C_Ek2IqN3ii-59" value="Chọn loại tài khoản" style="rounded=0;whiteSpace=wrap;html=1;" vertex="1" parent="1">
          <mxGeometry x="439" y="869" width="120" height="60" as="geometry" />
        </mxCell>
        <mxCell id="GWPl_3ji_C_Ek2IqN3ii-66" style="edgeStyle=orthogonalEdgeStyle;rounded=0;orthogonalLoop=1;jettySize=auto;html=1;entryX=1;entryY=0.5;entryDx=0;entryDy=0;" edge="1" parent="1" source="GWPl_3ji_C_Ek2IqN3ii-62" target="GWPl_3ji_C_Ek2IqN3ii-65">
          <mxGeometry relative="1" as="geometry">
            <Array as="points">
              <mxPoint x="760" y="1091" />
            </Array>
          </mxGeometry>
        </mxCell>
        <mxCell id="GWPl_3ji_C_Ek2IqN3ii-62" value="Yêu cầu nhập số tiền" style="rounded=0;whiteSpace=wrap;html=1;" vertex="1" parent="1">
          <mxGeometry x="705" y="960" width="120" height="60" as="geometry" />
        </mxCell>
        <mxCell id="GWPl_3ji_C_Ek2IqN3ii-73" style="edgeStyle=orthogonalEdgeStyle;rounded=0;orthogonalLoop=1;jettySize=auto;html=1;entryX=0;entryY=0.5;entryDx=0;entryDy=0;exitX=0.481;exitY=0.871;exitDx=0;exitDy=0;exitPerimeter=0;" edge="1" parent="1" source="GWPl_3ji_C_Ek2IqN3ii-65" target="GWPl_3ji_C_Ek2IqN3ii-67">
          <mxGeometry relative="1" as="geometry">
            <Array as="points">
              <mxPoint x="499" y="1114" />
              <mxPoint x="499" y="1180" />
            </Array>
          </mxGeometry>
        </mxCell>
        <mxCell id="GWPl_3ji_C_Ek2IqN3ii-65" value="Số tiền" style="shape=document;whiteSpace=wrap;html=1;boundedLbl=1;" vertex="1" parent="1">
          <mxGeometry x="439" y="1060" width="120" height="62" as="geometry" />
        </mxCell>
        <mxCell id="GWPl_3ji_C_Ek2IqN3ii-74" style="edgeStyle=orthogonalEdgeStyle;rounded=0;orthogonalLoop=1;jettySize=auto;html=1;entryX=1;entryY=0.5;entryDx=0;entryDy=0;" edge="1" parent="1" source="GWPl_3ji_C_Ek2IqN3ii-67" target="GWPl_3ji_C_Ek2IqN3ii-62">
          <mxGeometry relative="1" as="geometry">
            <Array as="points">
              <mxPoint x="845" y="1180" />
              <mxPoint x="845" y="990" />
            </Array>
          </mxGeometry>
        </mxCell>
        <mxCell id="GWPl_3ji_C_Ek2IqN3ii-79" style="edgeStyle=orthogonalEdgeStyle;rounded=0;orthogonalLoop=1;jettySize=auto;html=1;entryX=0.5;entryY=0;entryDx=0;entryDy=0;" edge="1" parent="1" source="GWPl_3ji_C_Ek2IqN3ii-67" target="GWPl_3ji_C_Ek2IqN3ii-78">
          <mxGeometry relative="1" as="geometry" />
        </mxCell>
        <mxCell id="GWPl_3ji_C_Ek2IqN3ii-67" value="Kiểm tra số tiền" style="rhombus;whiteSpace=wrap;html=1;" vertex="1" parent="1">
          <mxGeometry x="695" y="1140" width="130" height="80" as="geometry" />
        </mxCell>
        <mxCell id="GWPl_3ji_C_Ek2IqN3ii-75" value="Không thoả" style="text;html=1;align=center;verticalAlign=middle;resizable=0;points=[];autosize=1;strokeColor=none;fillColor=none;" vertex="1" parent="1">
          <mxGeometry x="850" y="1060" width="80" height="30" as="geometry" />
        </mxCell>
        <mxCell id="GWPl_3ji_C_Ek2IqN3ii-77" value="Thoả" style="text;html=1;align=center;verticalAlign=middle;resizable=0;points=[];autosize=1;strokeColor=none;fillColor=none;" vertex="1" parent="1">
          <mxGeometry x="770" y="1240" width="50" height="30" as="geometry" />
        </mxCell>
        <mxCell id="GWPl_3ji_C_Ek2IqN3ii-80" style="edgeStyle=orthogonalEdgeStyle;rounded=0;orthogonalLoop=1;jettySize=auto;html=1;entryX=1;entryY=0.5;entryDx=0;entryDy=0;" edge="1" parent="1" source="GWPl_3ji_C_Ek2IqN3ii-78" target="GWPl_3ji_C_Ek2IqN3ii-89">
          <mxGeometry relative="1" as="geometry">
            <mxPoint x="500" y="1330" as="targetPoint" />
          </mxGeometry>
        </mxCell>
        <mxCell id="GWPl_3ji_C_Ek2IqN3ii-78" value="Nhả thẻ và tiền cho khách hàng" style="rounded=0;whiteSpace=wrap;html=1;" vertex="1" parent="1">
          <mxGeometry x="700" y="1300" width="120" height="60" as="geometry" />
        </mxCell>
        <mxCell id="GWPl_3ji_C_Ek2IqN3ii-81" value="" style="ellipse;whiteSpace=wrap;html=1;aspect=fixed;fillColor=#000000;" vertex="1" parent="1">
          <mxGeometry x="300" y="118" width="22" height="22" as="geometry" />
        </mxCell>
        <mxCell id="GWPl_3ji_C_Ek2IqN3ii-84" value="" style="ellipse;whiteSpace=wrap;html=1;aspect=fixed;" vertex="1" parent="1">
          <mxGeometry x="720" y="400" width="20" height="20" as="geometry" />
        </mxCell>
        <mxCell id="GWPl_3ji_C_Ek2IqN3ii-82" value="" style="ellipse;whiteSpace=wrap;html=1;aspect=fixed;fillColor=#000000;" vertex="1" parent="1">
          <mxGeometry x="723" y="403.5" width="13" height="13" as="geometry" />
        </mxCell>
        <mxCell id="GWPl_3ji_C_Ek2IqN3ii-86" value="Sai" style="text;html=1;align=center;verticalAlign=middle;whiteSpace=wrap;rounded=0;" vertex="1" parent="1">
          <mxGeometry x="810" y="380" width="60" height="30" as="geometry" />
        </mxCell>
        <mxCell id="GWPl_3ji_C_Ek2IqN3ii-89" value="" style="ellipse;whiteSpace=wrap;html=1;aspect=fixed;fillColor=#FFFFFF;" vertex="1" parent="1">
          <mxGeometry x="478.25" y="1321.75" width="16.5" height="16.5" as="geometry" />
        </mxCell>
        <mxCell id="GWPl_3ji_C_Ek2IqN3ii-91" value="Khách hàng" style="swimlane;whiteSpace=wrap;html=1;" vertex="1" parent="1">
          <mxGeometry x="278.25" y="50" width="341.75" height="1330" as="geometry" />
        </mxCell>
        <mxCell id="GWPl_3ji_C_Ek2IqN3ii-92" value="máy ATM" style="swimlane;whiteSpace=wrap;html=1;" vertex="1" parent="1">
          <mxGeometry x="620" y="50" width="341.75" height="1330" as="geometry" />
        </mxCell>
        <mxCell id="GWPl_3ji_C_Ek2IqN3ii-93" value="Hệ thống ngân hàng" style="swimlane;whiteSpace=wrap;html=1;" vertex="1" parent="1">
          <mxGeometry x="961.75" y="50" width="341.75" height="1330" as="geometry" />
        </mxCell>
        <mxCell id="GWPl_3ji_C_Ek2IqN3ii-88" value="" style="ellipse;whiteSpace=wrap;html=1;aspect=fixed;fillColor=#000000;" vertex="1" parent="1">
          <mxGeometry x="480" y="1323.5" width="13" height="13" as="geometry" />
        </mxCell>
        <mxCell id="GWPl_3ji_C_Ek2IqN3ii-33" value="thông tin khách hàng" style="shape=document;whiteSpace=wrap;html=1;boundedLbl=1;" vertex="1" parent="1">
          <mxGeometry x="900" y="106" width="120" height="62" as="geometry" />
        </mxCell>
      </root>
    </mxGraphModel>
  </diagram>
</mxfile>
